<svg xmlns="http://www.w3.org/2000/svg" xmlns:xlink="http://www.w3.org/1999/xlink" width="41.496" height="38.168" viewBox="0 0 41.496 38.168">
  <defs>
    <filter id="Path_870" x="17.112" y="0.375" width="23.884" height="28.387" filterUnits="userSpaceOnUse">
      <feOffset input="SourceAlpha"/>
      <feGaussianBlur stdDeviation="0.5" result="blur"/>
      <feFlood flood-opacity="0.22"/>
      <feComposite operator="in" in2="blur"/>
      <feComposite in="SourceGraphic"/>
    </filter>
    <filter id="Path_870-2" x="17.112" y="0.375" width="23.884" height="28.387" filterUnits="userSpaceOnUse">
      <feOffset dy="3" input="SourceAlpha"/>
      <feGaussianBlur stdDeviation="3" result="blur-2"/>
      <feFlood flood-opacity="0.302" result="color"/>
      <feComposite operator="out" in="SourceGraphic" in2="blur-2"/>
      <feComposite operator="in" in="color"/>
      <feComposite operator="in" in2="SourceGraphic"/>
    </filter>
    <filter id="Path_877" x="0" y="0" width="19.991" height="38.168" filterUnits="userSpaceOnUse">
      <feOffset input="SourceAlpha"/>
      <feGaussianBlur stdDeviation="0.5" result="blur-3"/>
      <feFlood flood-opacity="0.22"/>
      <feComposite operator="in" in2="blur-3"/>
      <feComposite in="SourceGraphic"/>
    </filter>
    <filter id="Path_877-2" x="0" y="0" width="19.991" height="38.168" filterUnits="userSpaceOnUse">
      <feOffset dy="1" input="SourceAlpha"/>
      <feGaussianBlur stdDeviation="1.5" result="blur-4"/>
      <feFlood flood-opacity="0.161" result="color-2"/>
      <feComposite operator="out" in="SourceGraphic" in2="blur-4"/>
      <feComposite operator="in" in="color-2"/>
      <feComposite operator="in" in2="SourceGraphic"/>
    </filter>
    <filter id="Rectangle_127" x="29.496" y="26" width="12" height="12" filterUnits="userSpaceOnUse">
      <feOffset input="SourceAlpha"/>
      <feGaussianBlur stdDeviation="0.5" result="blur-5"/>
      <feFlood flood-opacity="0.22"/>
      <feComposite operator="in" in2="blur-5"/>
      <feComposite in="SourceGraphic"/>
    </filter>
    <filter id="Path_878" x="17.112" y="0.375" width="23.884" height="28.387" filterUnits="userSpaceOnUse">
      <feOffset input="SourceAlpha"/>
      <feGaussianBlur stdDeviation="0.5" result="blur-6"/>
      <feFlood flood-opacity="0.22"/>
      <feComposite operator="in" in2="blur-6"/>
      <feComposite in="SourceGraphic"/>
    </filter>
    <filter id="Path_878-2" x="17.112" y="0.375" width="23.884" height="28.387" filterUnits="userSpaceOnUse">
      <feOffset dy="3" input="SourceAlpha"/>
      <feGaussianBlur stdDeviation="3" result="blur-7"/>
      <feFlood flood-opacity="0.302" result="color-3"/>
      <feComposite operator="out" in="SourceGraphic" in2="blur-7"/>
      <feComposite operator="in" in="color-3"/>
      <feComposite operator="in" in2="SourceGraphic"/>
    </filter>
  </defs>
  <g id="Group_174" data-name="Group 174" transform="translate(3322.748 -273.916)">
    <g id="Group_169" data-name="Group 169" transform="translate(-1.252 0.416)">
      <g data-type="innerShadowGroup">
        <g transform="matrix(1, 0, 0, 1, -3321.5, 273.5)" filter="url(#Path_870)">
          <path id="Path_870-3" data-name="Path 870" d="M-3359.884,293.722V277.052l8.909-8.718H-3339V285.2l-8.718,8.526Z" transform="translate(3378.5 -266.46)" fill="#242526" opacity="0.65"/>
        </g>
        <g transform="matrix(1, 0, 0, 1, -3321.5, 273.5)" filter="url(#Path_870-2)">
          <path id="Path_870-4" data-name="Path 870" d="M-3359.884,293.722V277.052l8.909-8.718H-3339V285.2l-8.718,8.526Z" transform="translate(3378.5 -266.46)" fill="#fff" opacity="0.65"/>
        </g>
      </g>
      <g data-type="innerShadowGroup">
        <g transform="matrix(1, 0, 0, 1, -3321.5, 273.5)" filter="url(#Path_877)">
          <path id="Path_877-3" data-name="Path 877" d="M187.029-368.629a16.417,16.417,0,0,0-9.9,5.147,13.25,13.25,0,0,0-3.251,4.458,20.871,20.871,0,0,0-1.5,4.039,17.548,17.548,0,0,0,4.211,15.343c3.2,3.448,6.428,5.073,11.5,5.787l.911.123v-8.3l-1.034-.172a8.9,8.9,0,0,1-6.92-5.221,6.954,6.954,0,0,1-.763-3.891,6.809,6.809,0,0,1,.665-3.645,8.771,8.771,0,0,1,6.378-5.319l1.675-.394v-4.137a23.9,23.9,0,0,0-.172-4.088C188.7-368.875,187.916-368.752,187.029-368.629Z" transform="translate(-170.51 370.4)" fill="#d4f0f0"/>
        </g>
        <g transform="matrix(1, 0, 0, 1, -3321.5, 273.5)" filter="url(#Path_877-2)">
          <path id="Path_877-4" data-name="Path 877" d="M187.029-368.629a16.417,16.417,0,0,0-9.9,5.147,13.25,13.25,0,0,0-3.251,4.458,20.871,20.871,0,0,0-1.5,4.039,17.548,17.548,0,0,0,4.211,15.343c3.2,3.448,6.428,5.073,11.5,5.787l.911.123v-8.3l-1.034-.172a8.9,8.9,0,0,1-6.92-5.221,6.954,6.954,0,0,1-.763-3.891,6.809,6.809,0,0,1,.665-3.645,8.771,8.771,0,0,1,6.378-5.319l1.675-.394v-4.137a23.9,23.9,0,0,0-.172-4.088C188.7-368.875,187.916-368.752,187.029-368.629Z" transform="translate(-170.51 370.4)" fill="#fff"/>
        </g>
      </g>
      <g transform="matrix(1, 0, 0, 1, -3321.5, 273.5)" filter="url(#Rectangle_127)">
        <rect id="Rectangle_127-2" data-name="Rectangle 127" width="9" height="9" transform="translate(31 27.5)" fill="#ffd51e"/>
      </g>
    </g>
    <g data-type="innerShadowGroup">
      <g transform="matrix(1, 0, 0, 1, -3322.75, 273.92)" filter="url(#Path_878)">
        <path id="Path_878-3" data-name="Path 878" d="M-3359.884,293.722V277.052l8.909-8.718H-3339V285.2l-8.718,8.526Z" transform="translate(3378.5 -266.46)" fill="#242526" opacity="0.65"/>
      </g>
      <g transform="matrix(1, 0, 0, 1, -3322.75, 273.92)" filter="url(#Path_878-2)">
        <path id="Path_878-4" data-name="Path 878" d="M-3359.884,293.722V277.052l8.909-8.718H-3339V285.2l-8.718,8.526Z" transform="translate(3378.5 -266.46)" fill="#fff" opacity="0.65"/>
      </g>
    </g>
  </g>
</svg>
